<?xml version="1.0" encoding="UTF-8" standalone="no" ?>
<!DOCTYPE svg PUBLIC "-//W3C//DTD SVG 1.1//EN" "http://www.w3.org/Graphics/SVG/1.1/DTD/svg11.dtd">
<svg xmlns="http://www.w3.org/2000/svg" xmlns:xlink="http://www.w3.org/1999/xlink" version="1.1" width="1080" height="1080" viewBox="0 0 1080 1080" xml:space="preserve">
<desc>Created with Fabric.js 5.2.4</desc>
<defs>
</defs>
<g transform="matrix(1 0 0 1 540 540)" id="b41cd4a3-e432-4f93-9cd4-156a0150f4ce"  >
</g>
<g transform="matrix(1 0 0 1 540 540)" id="d9e0c207-d3ba-4742-9a35-65d464c79981"  >
<rect style="stroke: none; stroke-width: 1; stroke-dasharray: none; stroke-linecap: butt; stroke-dashoffset: 0; stroke-linejoin: miter; stroke-miterlimit: 4; fill: rgb(255,255,255); fill-rule: nonzero; opacity: 1; visibility: hidden;" vector-effect="non-scaling-stroke"  x="-540" y="-540" rx="0" ry="0" width="1080" height="1080" />
</g>
<g transform="matrix(1 0 0 1 540 540)"  >
<path style="stroke: rgb(0,0,0); stroke-width: 0; stroke-dasharray: none; stroke-linecap: butt; stroke-dashoffset: 0; stroke-linejoin: miter; stroke-miterlimit: 4; fill: rgb(228,228,228); fill-rule: nonzero; opacity: 1;" vector-effect="non-scaling-stroke"  transform=" translate(-774.65, -477)" d="M 1430.6 551.5 L 1315.6999999999998 472.9 C 1270.7999999999997 441.2 1250.8999999999999 412.29999999999995 1250.8999999999999 377.7 C 1250.8999999999999 333.59999999999997 1287.6 306.1 1339.3999999999999 306.1 C 1405.3999999999999 306.1 1436.3 336.5 1475.4999999999998 336.5 C 1506.3999999999999 336.5 1527.5999999999997 315.9 1527.5999999999997 285.4 C 1527.5999999999997 263.5 1516.1999999999996 245.49999999999997 1486.7999999999997 231.79999999999998 C 1440.3999999999996 209.6 1389.8999999999996 201.39999999999998 1335.1999999999998 201.39999999999998 C 1277.7999999999997 201.39999999999998 1227.1999999999998 217.89999999999998 1190.6 245.49999999999997 C 1183.6999999999998 251.09999999999997 1176.6999999999998 256.5 1169.6999999999998 263.5 C 1127.4999999999998 307.6 1092.3999999999999 372.3 1064.2999999999997 463.3 L 1032.0999999999997 568 C 974.5999999999997 752.6 883.2999999999997 840.8 741.4999999999997 840.8 C 585.7999999999997 840.8 487.5999999999997 734.5999999999999 487.5999999999997 577.5999999999999 C 487.5999999999997 420.4999999999999 585.7999999999997 312.9999999999999 727.5999999999997 312.9999999999999 Q 736.8999999999996 312.9999999999999 745.5999999999997 313.4999999999999 Q 746.6999999999997 313.4999999999999 747.6999999999997 313.7999999999999 Q 755.6999999999997 313.9999999999999 763.3999999999997 315.0999999999999 Q 764.6999999999997 315.0999999999999 765.9999999999998 315.2999999999999 Q 773.6999999999998 316.0999999999999 781.1999999999998 317.3999999999999 Q 782.1999999999998 317.69999999999993 783.4999999999998 317.69999999999993 Q 791.2999999999997 318.8999999999999 798.6999999999998 320.79999999999995 Q 799.4999999999998 320.79999999999995 799.9999999999998 320.99999999999994 C 822.1999999999998 325.8999999999999 842.7999999999997 333.09999999999997 862.3999999999997 342.19999999999993 C 880.4999999999998 350.3999999999999 895.8999999999997 352.99999999999994 910.0999999999998 352.99999999999994 C 943.5999999999998 352.99999999999994 966.0999999999998 331.09999999999997 966.0999999999998 298.09999999999997 C 966.0999999999998 277.4 953.3999999999997 256.49999999999994 923.9999999999998 242.89999999999998 C 870.6999999999998 216.79999999999998 801.7999999999997 201.59999999999997 727.5999999999998 201.59999999999997 C 505.8999999999998 201.59999999999997 352.6999999999998 355.79999999999995 352.6999999999998 580.4 C 352.6999999999998 639.6999999999999 363.5999999999998 693.8 383.6999999999998 741.5 C 354.49999999999983 803.7 309.8999999999998 836.7 251.69999999999982 836.7 C 181.59999999999982 836.7 135.19999999999982 796.7 135.19999999999982 706 L 135.19999999999982 317.1 L 299.3999999999998 317.1 C 337.2999999999998 317.1 362.49999999999983 295.20000000000005 362.49999999999983 263.5 C 362.49999999999983 231.8 337.29999999999984 209.9 299.3999999999998 209.9 L 135.3999999999998 209.9 L 135.3999999999998 69.1 C 135.3999999999998 27.799999999999997 107.29999999999981 0.29999999999999716 67.8999999999998 0.29999999999999716 C 28.699999999999804 0.29999999999999716 0.5999999999998096 27.799999999999997 0.5999999999998096 69.1 L 0.5999999999998096 341.9 L 0.5999999999998096 720.9 C 0.5999999999998096 872.5 88.99999999999982 952.5 238.99999999999983 952.5 C 272.79999999999984 952.5 303.79999999999984 946.8 331.89999999999986 937.2 C 380.79999999999984 919.2 420.4999999999999 887.2 448.39999999999986 841.6 C 515.1999999999998 912.2 613.8999999999999 953.7 737.3999999999999 953.7 C 801.7999999999998 953.7 857.9999999999999 941.4000000000001 908.5999999999999 915.1 C 1010.8999999999999 862.7 1084.1 756.8 1134.6999999999998 594.1 L 1164.1 499.20000000000005 C 1183.6999999999998 525 1211.1999999999998 549.5 1248.3999999999999 575 L 1353.6 646.4 C 1401.1999999999998 679.6999999999999 1420.8 707.1999999999999 1420.8 747 C 1420.8 806.3 1373.1 846.2 1304.3 846.2 C 1238.3 846.2 1182.3999999999999 813.2 1151.3999999999999 813.2 C 1120.4999999999998 813.2 1099.6 833.8000000000001 1099.6 864.3000000000001 C 1099.6 886.2 1110.6999999999998 904.2 1140.1 917.9000000000001 C 1180.8 937.2 1246.8 953.7 1305.8999999999999 953.7 C 1380.1 953.7 1441.9999999999998 931.8000000000001 1485.4999999999998 893.2 C 1524.6999999999998 857.3000000000001 1548.6999999999998 806.3000000000001 1548.6999999999998 747 C 1548.4999999999998 664.4 1514.8999999999999 609.3 1430.6 551.5 z" stroke-linecap="round" />
</g>
</svg>